<?xml version="1.0" standalone="no"?><!DOCTYPE svg PUBLIC "-//W3C//DTD SVG 1.1//EN" "http://www.w3.org/Graphics/SVG/1.1/DTD/svg11.dtd"><svg t="1696056678860" class="icon" viewBox="0 0 1024 1024" version="1.1" xmlns="http://www.w3.org/2000/svg" p-id="6889" xmlns:xlink="http://www.w3.org/1999/xlink" width="200" height="200"><path d="M576 597.333333v-21.333333c0-11.733333-9.6-21.333333-21.333333-21.333333h-85.333334c-11.733333 0-21.333333 9.6-21.333333 21.333333v21.333333c0 11.733333 9.6 21.333333 21.333333 21.333334h12.8l-33.28 124.16c-0.426667 2.346667 0 4.906667 1.493334 6.826666l51.413333 68.693334a12.8 12.8 0 0 0 20.48 0l51.413333-68.693334c1.493333-1.92 1.92-4.48 1.493334-6.826666L541.866667 618.666667h12.8c11.733333 0 21.333333-9.6 21.333333-21.333334zM512 533.333333c-105.6 0-192-86.4-192-192v-85.333333c0-105.6 86.4-192 192-192s192 86.4 192 192v85.333333c0 105.6-86.4 192-192 192z" p-id="6890"></path><path d="M773.12 576l-48.64-10.666667c-8.96-1.92-18.346667 2.133333-22.826667 10.24l-176.426666 315.946667c-5.76 10.24-20.693333 10.24-26.453334 0l-181.12-324.266667a20.757333 20.757333 0 0 0-22.826666-10.24L208.213333 576A127.914667 127.914667 0 0 0 106.666667 701.226667V853.333333c0 47.146667 38.186667 85.333333 85.333333 85.333334h597.333333c47.146667 0 85.333333-38.186667 85.333334-85.333334v-152.106666c0-60.586667-42.453333-112.853333-101.546667-125.226667z" p-id="6891"></path></svg>