<?xml version="1.0" standalone="no"?><!DOCTYPE svg PUBLIC "-//W3C//DTD SVG 1.1//EN" "http://www.w3.org/Graphics/SVG/1.1/DTD/svg11.dtd"><svg t="1696056721900" class="icon" viewBox="0 0 1024 1024" version="1.1" xmlns="http://www.w3.org/2000/svg" p-id="7029" xmlns:xlink="http://www.w3.org/1999/xlink" width="200" height="200"><path d="M691.712 627.936c-41.728 0-75.648 33.888-75.648 75.552s33.952 75.616 75.648 75.616 75.68-33.952 75.68-75.616-33.952-75.552-75.68-75.552z m0 112.256a36.704 36.704 0 0 1-36.672-36.672 36.704 36.704 0 0 1 73.344 0 36.672 36.672 0 0 1-36.672 36.672z m200.064-76.128c-2.848-15.008-12.48-24.736-24.8-24.736h-1.728a42.816 42.816 0 0 1-42.816-42.752c0-6.176 2.688-13.76 3.712-16.192 5.888-13.12 1.376-29.312-11.648-38.304l-50.08-27.712a34.016 34.016 0 0 0-36.608 7.296c-6.208 6.464-22.784 19.744-34.176 19.744-11.552 0-28.224-13.568-34.432-20.064a33.92 33.92 0 0 0-36.544-7.616l-0.96 0.384-50.976 28-1.184 0.736a30.944 30.944 0 0 0-10.592 37.44c0.416 0.928 3.808 9.248 3.808 16.32a42.88 42.88 0 0 1-42.88 42.752h-2.016c-12.064 0-21.664 9.76-24.512 24.736-0.448 2.24-4.224 23.008-4.224 39.744 0 16.672 3.776 37.44 4.224 39.744 2.848 14.944 12.448 24.64 24.8 24.64h1.696c23.616 0 42.88 19.2 42.88 42.816 0 6.112-2.72 13.76-3.744 16.192-5.888 13.12-1.376 29.248 11.584 38.24l49.152 27.36a33.376 33.376 0 0 0 36.832-7.68c6.048-6.56 23.264-20.928 34.976-20.928 11.904 0 28.864 14.368 35.264 21.312 5.92 6.528 15.072 10.464 24.384 10.464a31.776 31.776 0 0 0 13.632-3.136l49.696-27.36 1.184-0.8a30.848 30.848 0 0 0 10.56-37.376 49.856 49.856 0 0 1-3.776-16.32 42.88 42.88 0 0 1 42.816-42.816h2.016c12.064 0 21.696-9.696 24.512-24.64-0.032-0.192 4.192-22.176 4.192-39.744 0-16.736-3.808-37.504-4.224-39.744z m-37.248 65.888a81.696 81.696 0 0 0-71.104 81.056c0 9.504 2.304 18.56 4.352 24.736l-35.872 19.744c-3.2-3.2-8.352-7.808-14.72-12.576-15.872-11.744-31.232-17.76-45.664-17.76-14.272 0-29.504 5.888-45.248 17.376a147.328 147.328 0 0 0-14.656 12.384l-34.272-19.136c2.048-6.176 4.384-15.328 4.384-24.8a81.696 81.696 0 0 0-71.104-81.056 191.808 191.808 0 0 1-2.464-26.112c0-8.672 1.44-19.488 2.464-26.176a81.792 81.792 0 0 0 71.104-81.056c0-9.504-2.304-18.56-4.352-24.736l37.024-20.32c3.2 3.072 8.352 7.616 14.656 12.128 15.552 11.136 30.528 16.672 44.576 16.672 13.856 0 28.672-5.504 44.128-16.384 6.272-4.384 11.36-8.8 14.592-11.808l35.456 19.68a80.32 80.32 0 0 0-4.384 24.736c0 41.312 30.752 75.744 71.104 81.056 1.056 6.752 2.464 17.632 2.464 26.176s-1.408 19.424-2.464 26.176zM178.56 840.64v-42.816c0-145.632 112.384-265.568 255.488-279.072l-0.064-0.064h0.384c8.768-0.8 17.664-1.28 26.656-1.28l4.032 0.096c31.648-2.432 79.52-9.888 104.576-32.192l12.288-9.568c47.84-37.376 75.328-93.12 75.328-153.056C657.216 215.328 569.184 128 460.96 128c-108.192 0-196.224 87.328-196.224 194.688 0 59.936 27.424 115.68 75.328 153.056l12.256 9.568-14.432 5.696C210.368 541.6 128 662.016 128 797.824v67.872c0 13.76 11.328 24.992 25.28 24.992h369.472a255.776 255.776 0 0 1-30.56-50.048H178.56z m136.768-517.952c0-79.712 65.344-144.608 145.664-144.608 80.352 0 145.696 64.832 145.696 144.608s-65.344 144.64-145.696 144.64c-80.32 0-145.664-64.896-145.664-144.64z" fill="#010101" p-id="7030"></path></svg>