<?xml version="1.0" standalone="no"?><!DOCTYPE svg PUBLIC "-//W3C//DTD SVG 1.1//EN" "http://www.w3.org/Graphics/SVG/1.1/DTD/svg11.dtd"><svg t="1696056637466" class="icon" viewBox="0 0 1024 1024" version="1.1" xmlns="http://www.w3.org/2000/svg" p-id="5908" xmlns:xlink="http://www.w3.org/1999/xlink" width="200" height="200"><path d="M442.181818 418.909091a186.181818 186.181818 0 1 1 0-372.363636 186.181818 186.181818 0 0 1 0 372.363636z m0-46.545455a139.636364 139.636364 0 1 0 0-279.272727 139.636364 139.636364 0 0 0 0 279.272727z m395.636364 581.818182a23.272727 23.272727 0 0 1-23.272727 23.272727H69.818182a23.272727 23.272727 0 0 1-23.272727-23.272727v-46.545454c0-218.507636 177.128727-395.636364 395.636363-395.636364s395.636364 177.128727 395.636364 395.636364v46.545454z m-46.545455-23.272727v-23.272727c0-192.791273-156.299636-349.090909-349.090909-349.090909-192.791273 0-349.090909 156.299636-349.090909 349.090909v23.272727h698.181818z m0-698.181818V186.181818h186.181818v46.545455h-186.181818z m0 186.181818v-46.545455h186.181818v46.545455h-186.181818z m93.090909 186.181818v-46.545454h93.090909v46.545454h-93.090909z" fill="#6D7793" p-id="5909"></path></svg>